<svg width="222" height="74" viewBox="0 0 222 74" fill="none" xmlns="http://www.w3.org/2000/svg">
<path d="M14.795 0.589844C15.2833 0.589844 15.7553 1.06185 16.211 2.00586L16.0646 2.73828C18.8966 21.4557 20.8823 35.7135 22.0216 45.5117C21.6961 46.4232 21.1915 46.8789 20.5079 46.8789C19.3686 46.8789 18.685 44.4375 18.4571 39.5547L17.92 35.6973L15.2345 35.8438C13.5418 35.8438 10.9864 35.6322 7.56847 35.209C5.15961 43.4447 3.51573 47.5625 2.63683 47.5625H2.53917C1.4975 47.2695 0.976669 46.7487 0.976669 46C3.61339 39.5547 6.47797 28.5195 9.57042 12.8945C10.9051 8.07682 12.1258 4.18685 13.2325 1.22461C13.6883 0.801432 14.2091 0.589844 14.795 0.589844ZM8.34972 32.2793C10.1401 32.7025 12.0281 32.9141 14.0138 32.9141H16.6505C17.0086 32.9141 17.3178 32.7676 17.5782 32.4746L14.0138 8.74414H13.9161C13.2651 9.75326 12.3211 13.3014 11.0841 19.3887L8.34972 32.2793ZM29.1993 3.42188C30.241 3.42188 30.6967 6.56315 30.5665 12.8457C30.4689 19.0957 30.42 23.5228 30.42 26.127H30.5177L33.4474 25.6875C34.3914 25.8177 34.8634 26.2897 34.8634 27.1035C34.8634 28.2103 33.838 28.7637 31.7872 28.7637L30.5177 29.2031L30.9571 45.5605C30.8269 46.6673 30.3224 47.2207 29.4435 47.2207C28.4018 47.2207 27.881 46.4557 27.881 44.9258V41.0684L27.7833 30.1797L27.588 29.6914L25.4396 29.8379C24.5281 29.6426 24.0724 29.138 24.0724 28.3242C24.0724 27.3151 25.1954 26.8105 27.4415 26.8105V26.6152C27.4415 22.4486 27.5066 15.1732 27.6368 4.78906C27.6368 3.97526 28.1577 3.51953 29.1993 3.42188ZM41.7482 28.5684C43.5711 28.5684 44.808 30.2122 45.4591 33.5C44.6127 37.1784 42.8712 39.0176 40.2345 39.0176H40.0392V39.1641C40.56 42.1263 41.9435 43.6074 44.1896 43.6074C45.9148 43.6074 47.3146 42.1263 48.3888 39.1641L49.463 38.7246C50.1791 38.7246 50.6349 39.278 50.8302 40.3848C50.8302 42.403 49.2514 44.3073 46.0939 46.0977L43.7501 46.5371C40.9506 46.5371 38.851 44.5352 37.4513 40.5312C37.0607 38.9362 36.8653 37.6178 36.8653 36.5762V35.9414C36.8653 32.6211 38.2488 30.2122 41.0157 28.7148L41.7482 28.5684ZM39.9415 34.7207V34.8184L41.0157 35.9414C41.504 35.9414 41.9597 35.2741 42.3829 33.9395V33.1582C42.2202 32.1491 42.0086 31.6445 41.7482 31.6445H41.4552C40.9669 31.6445 40.4623 32.6699 39.9415 34.7207ZM55.5177 2.73828C56.006 2.77083 56.4617 3.17773 56.8849 3.95898C56.657 4.31706 56.5105 4.9681 56.4454 5.91211L56.3966 6.54688L56.6896 25.7852C56.5268 34.5091 56.6245 40.9056 56.9825 44.9746L57.0802 45.3652C56.7872 45.9837 56.3152 46.2767 55.6642 46.2441C54.1993 46.1465 53.6134 44.1283 53.9064 40.1895C53.711 38.041 53.6134 28.1615 53.6134 10.5508C53.4181 9.47656 53.3692 8.06055 53.4669 6.30273V6.10742C53.6297 3.79622 54.3133 2.67318 55.5177 2.73828ZM64.1114 21.1953C64.9578 21.1953 65.4786 21.7487 65.6739 22.8555C65.6739 23.3763 65.3159 23.8809 64.5997 24.3691H64.1114C63.2 24.3691 62.7442 23.8158 62.7442 22.709C63.0047 21.6999 63.4604 21.1953 64.1114 21.1953ZM64.4532 27.7871C65.56 27.9499 65.8692 29.5938 65.381 32.7188C64.9903 35.2904 64.9252 39.6035 65.1857 45.6582C64.6974 46.6022 64.0626 47.0091 63.2814 46.8789C62.3699 46.7487 61.9955 45.1374 62.1583 42.0449C62.0932 36.6413 62.3699 32.1165 62.9884 28.4707C63.0535 27.9824 63.5418 27.7546 64.4532 27.7871ZM73.6329 28.5684C75.4558 28.5684 76.6928 30.2122 77.3439 33.5C76.4975 37.1784 74.756 39.0176 72.1192 39.0176H71.9239V39.1641C72.4448 42.1263 73.8282 43.6074 76.0743 43.6074C77.7996 43.6074 79.1993 42.1263 80.2735 39.1641L81.3478 38.7246C82.0639 38.7246 82.5196 39.278 82.715 40.3848C82.715 42.403 81.1362 44.3073 77.9786 46.0977L75.6349 46.5371C72.8354 46.5371 70.7358 44.5352 69.336 40.5312C68.9454 38.9362 68.7501 37.6178 68.7501 36.5762V35.9414C68.7501 32.6211 70.1336 30.2122 72.9005 28.7148L73.6329 28.5684ZM71.8263 34.7207V34.8184L72.9005 35.9414C73.3888 35.9414 73.8445 35.2741 74.2677 33.9395V33.1582C74.1049 32.1491 73.8933 31.6445 73.6329 31.6445H73.34C72.8517 31.6445 72.3471 32.6699 71.8263 34.7207ZM68.7013 27.1523C68.7338 26.7617 70.5567 24.304 74.17 19.7793C74.6258 19.5514 75.0978 19.4538 75.586 19.4863C75.8139 19.4863 76.6277 20.6908 78.0275 23.0996C79.8178 24.8249 80.6804 26.0618 80.6153 26.8105C80.2898 27.5592 79.7853 27.901 79.1017 27.8359L78.9064 27.7871C78.4832 27.7871 77.1974 26.4362 75.0489 23.7344H74.756C72.3146 26.9896 70.7521 28.5846 70.0685 28.5195H69.922C69.4337 28.4544 69.0268 27.9987 68.7013 27.1523ZM99.2189 3.08008C99.9025 3.08008 100.521 4.05664 101.074 6.00977H101.367C102.474 5.16341 104.02 4.65885 106.006 4.49609C111.768 4.49609 115.625 9.70443 117.578 20.1211L118.311 28.2754C118.311 37.5853 114.99 43.64 108.35 46.4395L105.811 46.7324H105.713C104.997 46.7324 103.923 46.4883 102.49 46V46.4395L102.637 47.3672C102.637 47.8229 102.181 48.2786 101.27 48.7344C100.033 48.7344 99.4142 47.3997 99.4142 44.7305C98.5678 33.3047 98.1446 26.2897 98.1446 23.6855L98.6329 9.33008C98.6329 7.86523 98.2748 6.25391 97.5587 4.49609C97.5587 3.7474 98.1121 3.27539 99.2189 3.08008ZM101.074 23.4902L101.807 39.6523C102.621 42.4518 103.809 43.8516 105.371 43.8516H106.641C108.399 43.8516 110.335 42.5169 112.451 39.8477C114.307 36.8854 115.234 33.3861 115.234 29.3496V26.7617C115.234 20.2513 113.9 14.7663 111.231 10.3066C109.668 8.45117 108.236 7.52344 106.934 7.52344H105.078C102.995 7.52344 101.807 8.80924 101.514 11.3809L101.074 23.4902ZM129.199 29.6426L132.129 30.1309V29.9844C132.845 29.9844 133.399 30.554 133.789 31.6934L133.643 34.7695V36.918C133.643 40.0755 134.098 42.4355 135.01 43.998C134.749 44.8118 134.245 45.2188 133.496 45.2188C132.422 45.2188 131.641 43.9818 131.152 41.5078L131.055 40.7266H130.615C129.443 43.4935 127.783 45.3327 125.635 46.2441L124.902 46.4395C122.103 45.6582 120.703 43.6074 120.703 40.2871V39.9941C120.703 35.86 122.705 32.5723 126.709 30.1309L129.199 29.6426ZM123.633 40.9219C123.861 42.5495 124.382 43.3633 125.195 43.3633H125.342C126.481 43.3633 128.272 39.929 130.713 33.0605V32.9141L129.297 32.6211H129.199C126.595 32.6211 124.74 34.8672 123.633 39.3594V40.9219ZM144.531 27.9336C147.819 27.9336 150.619 30.554 152.93 35.7949L153.613 39.0176C153.613 42.9564 151.042 45.2676 145.899 45.9512H145.557C144.385 45.9512 143.327 45.6419 142.383 45.0234H141.895C142.383 58.5 142.627 67.5495 142.627 72.1719C142.334 73.3112 141.813 73.8809 141.065 73.8809C140.023 73.8809 139.502 73.0508 139.502 71.3906V70.7559C139.502 65.7428 139.323 57.0026 138.965 44.5352C138.542 39.0013 138.33 34.7533 138.33 31.791V30.7656C138.33 29.1055 138.835 28.2754 139.844 28.2754H140.527C141.113 28.6335 141.406 29.0892 141.406 29.6426C142.448 28.6335 143.213 28.1289 143.701 28.1289L144.531 27.9336ZM142.676 36.1367C142.09 40.7266 142.953 43.0215 145.264 43.0215H146.045C148.682 43.0215 150.228 41.7845 150.684 39.3105V38.8711C150.684 36.6901 149.544 34.444 147.266 32.1328C146.322 31.2865 145.459 30.8633 144.678 30.8633C143.604 30.7982 142.936 32.556 142.676 36.1367ZM158.692 2.73828C159.18 2.77083 159.636 3.17773 160.059 3.95898C159.831 4.31706 159.684 4.9681 159.619 5.91211L159.57 6.54688L159.863 25.7852C159.701 34.5091 159.798 40.9056 160.156 44.9746L160.254 45.3652C159.961 45.9837 159.489 46.2767 158.838 46.2441C157.373 46.1465 156.787 44.1283 157.08 40.1895C156.885 38.041 156.787 28.1615 156.787 10.5508C156.592 9.47656 156.543 8.06055 156.641 6.30273V6.10742C156.804 3.79622 157.487 2.67318 158.692 2.73828ZM172.363 29.6426L175.293 30.1309V29.9844C176.009 29.9844 176.563 30.554 176.953 31.6934L176.807 34.7695V36.918C176.807 40.0755 177.262 42.4355 178.174 43.998C177.914 44.8118 177.409 45.2188 176.66 45.2188C175.586 45.2188 174.805 43.9818 174.317 41.5078L174.219 40.7266H173.779C172.608 43.4935 170.947 45.3327 168.799 46.2441L168.067 46.4395C165.267 45.6582 163.867 43.6074 163.867 40.2871V39.9941C163.867 35.86 165.869 32.5723 169.873 30.1309L172.363 29.6426ZM166.797 40.9219C167.025 42.5495 167.546 43.3633 168.359 43.3633H168.506C169.645 43.3633 171.436 39.929 173.877 33.0605V32.9141L172.461 32.6211H172.363C169.759 32.6211 167.904 34.8672 166.797 39.3594V40.9219ZM188.526 28.7148C191.813 28.9753 193.148 32.9303 192.529 40.5801L192.139 44.9258C191.943 46.0977 191.374 46.651 190.43 46.5859C189.551 46.5208 189.16 45.9349 189.258 44.8281L189.6 40.0918C190.055 34.5254 189.567 31.6934 188.135 31.5957C186.605 31.4655 185.498 34.3626 184.815 40.2871L185.01 45.5605C184.945 46.2441 184.391 46.6022 183.35 46.6348C182.145 46.5371 181.69 44.8118 181.983 41.459L180.811 30.2773C180.876 29.5286 181.478 29.1217 182.617 29.0566C183.301 29.0892 183.708 29.8216 183.838 31.2539L184.033 31.3027C185.498 29.4798 186.996 28.6172 188.526 28.7148ZM200.293 3.42188C201.335 3.42188 201.79 6.56315 201.66 12.8457C201.563 19.0957 201.514 23.5228 201.514 26.127H201.611L204.541 25.6875C205.485 25.8177 205.957 26.2897 205.957 27.1035C205.957 28.2103 204.932 28.7637 202.881 28.7637L201.611 29.2031L202.051 45.5605C201.921 46.6673 201.416 47.2207 200.537 47.2207C199.496 47.2207 198.975 46.4557 198.975 44.9258V41.0684L198.877 30.1797L198.682 29.6914L196.533 29.8379C195.622 29.6426 195.166 29.138 195.166 28.3242C195.166 27.3151 196.289 26.8105 198.535 26.8105V26.6152C198.535 22.4486 198.6 15.1732 198.731 4.78906C198.731 3.97526 199.251 3.51953 200.293 3.42188ZM212.842 28.5684C214.665 28.5684 215.902 30.2122 216.553 33.5C215.707 37.1784 213.965 39.0176 211.328 39.0176H211.133V39.1641C211.654 42.1263 213.037 43.6074 215.283 43.6074C217.009 43.6074 218.408 42.1263 219.483 39.1641L220.557 38.7246C221.273 38.7246 221.729 39.278 221.924 40.3848C221.924 42.403 220.345 44.3073 217.188 46.0977L214.844 46.5371C212.044 46.5371 209.945 44.5352 208.545 40.5312C208.154 38.9362 207.959 37.6178 207.959 36.5762V35.9414C207.959 32.6211 209.343 30.2122 212.109 28.7148L212.842 28.5684ZM211.035 34.7207V34.8184L212.109 35.9414C212.598 35.9414 213.054 35.2741 213.477 33.9395V33.1582C213.314 32.1491 213.102 31.6445 212.842 31.6445H212.549C212.061 31.6445 211.556 32.6699 211.035 34.7207Z" fill="black"/>
</svg>
